<svg width="403" height="200" viewBox="0 0 403 200" fill="none" xmlns="http://www.w3.org/2000/svg">
<g clip-path="url(#clip0)">
<rect width="403" height="200" fill="#EB5757"/>
<path d="M76.4974 157.996C69.5781 157.996 63.3054 156.509 57.6794 153.534C52.1181 150.495 47.7208 146.324 44.4874 141.021C41.3187 135.654 39.7344 129.608 39.7344 122.882C39.7344 116.157 41.3187 110.143 44.4874 104.84C47.7208 99.4729 52.1181 95.3019 57.6794 92.3273C63.3054 89.2879 69.6104 87.7683 76.5944 87.7683C82.4791 87.7683 87.7818 88.8029 92.5024 90.8723C97.2877 92.9416 101.297 95.9163 104.53 99.7963L94.4424 109.108C89.8511 103.806 84.1604 101.154 77.3704 101.154C73.1671 101.154 69.4164 102.092 66.1184 103.967C62.8204 105.778 60.2338 108.332 58.3584 111.63C56.5478 114.928 55.6424 118.679 55.6424 122.882C55.6424 127.086 56.5478 130.836 58.3584 134.134C60.2338 137.432 62.8204 140.019 66.1184 141.894C69.4164 143.705 73.1671 144.61 77.3704 144.61C84.1604 144.61 89.8511 141.927 94.4424 136.559L104.53 145.871C101.297 149.816 97.2877 152.823 92.5024 154.892C87.7171 156.962 82.3821 157.996 76.4974 157.996ZM167.716 144.222V156.832H115.142V88.9323H166.455V101.542H130.759V116.286H162.284V128.508H130.759V144.222H167.716ZM223.481 156.832L210.386 137.917H209.61H195.933V156.832H180.219V88.9323H209.61C215.624 88.9323 220.83 89.9346 225.227 91.9393C229.689 93.9439 233.117 96.7893 235.509 100.475C237.902 104.161 239.098 108.526 239.098 113.57C239.098 118.614 237.87 122.979 235.412 126.665C233.02 130.287 229.592 133.067 225.13 135.007L240.359 156.832H223.481ZM223.19 113.57C223.19 109.755 221.962 106.845 219.504 104.84C217.047 102.771 213.458 101.736 208.737 101.736H195.933V125.404H208.737C213.458 125.404 217.047 124.37 219.504 122.3C221.962 120.231 223.19 117.321 223.19 113.57ZM264.666 101.736H242.938V88.9323H302.108V101.736H280.38V156.832H264.666V101.736ZM332.399 157.996C327.032 157.996 321.826 157.285 316.782 155.862C311.803 154.375 307.794 152.467 304.754 150.139L310.089 138.305C312.999 140.439 316.459 142.153 320.468 143.446C324.478 144.74 328.487 145.386 332.496 145.386C336.958 145.386 340.256 144.74 342.39 143.446C344.524 142.088 345.591 140.31 345.591 138.111C345.591 136.495 344.945 135.169 343.651 134.134C342.423 133.035 340.806 132.162 338.801 131.515C336.861 130.869 334.21 130.157 330.847 129.381C325.674 128.153 321.438 126.924 318.14 125.695C314.842 124.467 311.997 122.494 309.604 119.778C307.276 117.062 306.112 113.441 306.112 108.914C306.112 104.97 307.179 101.413 309.313 98.2443C311.447 95.0109 314.648 92.4566 318.916 90.5813C323.249 88.7059 328.519 87.7683 334.727 87.7683C339.06 87.7683 343.296 88.2856 347.434 89.3203C351.573 90.3549 355.194 91.8423 358.298 93.7823L353.448 105.713C347.176 102.157 340.903 100.378 334.63 100.378C330.233 100.378 326.967 101.09 324.833 102.512C322.764 103.935 321.729 105.81 321.729 108.138C321.729 110.466 322.926 112.212 325.318 113.376C327.776 114.476 331.494 115.575 336.473 116.674C341.647 117.903 345.882 119.132 349.18 120.36C352.478 121.589 355.291 123.529 357.619 126.18C360.012 128.832 361.208 132.421 361.208 136.947C361.208 140.827 360.109 144.384 357.91 147.617C355.776 150.786 352.543 153.308 348.21 155.183C343.878 157.059 338.607 157.996 332.399 157.996Z" fill="white"/>
<path d="M41.5873 53.241C41.5873 55.8002 41.6332 58.0048 41.7248 59.8549C41.847 61.7049 42.0914 63.3391 42.4579 64.7575C42.855 66.145 43.4202 67.4092 44.1533 68.5501C44.917 69.6909 45.9556 70.8472 47.2691 72.0189L44.2449 75.0714C42.4732 73.8689 41.0375 72.5893 39.9378 71.2326C38.8687 69.9068 38.0286 68.3959 37.4177 66.7C36.8373 64.9733 36.4402 63.0308 36.2263 60.8724C36.0431 58.6832 35.9514 56.1394 35.9514 53.241C35.9514 50.3734 36.0431 47.845 36.2263 45.6558C36.4402 43.4666 36.8373 41.5241 37.4177 39.8282C38.0286 38.1323 38.8687 36.6215 39.9378 35.2956C41.0375 33.9389 42.4732 32.6593 44.2449 31.4568L47.2691 34.4631C45.9556 35.6656 44.917 36.8373 44.1533 37.9782C43.3896 39.119 42.8092 40.3986 42.4121 41.817C42.0455 43.2354 41.8164 44.8541 41.7248 46.6733C41.6332 48.4925 41.5873 50.6818 41.5873 53.241Z" fill="white"/>
<path d="M50.3996 66.9313V43.0195H56.8144V66.9313H50.3996ZM49.8497 36.0819C49.8497 35.0027 50.201 34.0931 50.9036 33.3531C51.6367 32.5822 52.5378 32.1968 53.607 32.1968C54.6761 32.1968 55.562 32.5822 56.2646 33.3531C56.9977 34.0931 57.3643 35.0027 57.3643 36.0819C57.3643 37.1611 56.9977 38.0707 56.2646 38.8107C55.562 39.5199 54.6761 39.8744 53.607 39.8744C52.5378 39.8744 51.6367 39.5199 50.9036 38.8107C50.201 38.0707 49.8497 37.1611 49.8497 36.0819Z" fill="white"/>
<path d="M65.6245 53.241C65.6245 50.6818 65.5787 48.4925 65.487 46.6733C65.3954 44.8541 65.151 43.2354 64.7539 41.817C64.3873 40.3986 63.8222 39.119 63.0585 37.9782C62.2949 36.8373 61.2563 35.6656 59.9427 34.4631L62.9669 31.4568C64.7386 32.6593 66.1591 33.9389 67.2282 35.2956C68.3279 36.6215 69.1679 38.1323 69.7483 39.8282C70.3593 41.5241 70.7564 43.4666 70.9397 45.6558C71.1535 47.845 71.2604 50.3734 71.2604 53.241C71.2604 56.1394 71.1535 58.6832 70.9397 60.8724C70.7564 63.0308 70.3593 64.9733 69.7483 66.7C69.1679 68.3959 68.3279 69.9068 67.2282 71.2326C66.1591 72.5893 64.7386 73.8689 62.9669 75.0714L59.9427 72.0189C61.2563 70.8472 62.2796 69.6909 63.0127 68.5501C63.7764 67.4092 64.3415 66.145 64.7081 64.7575C65.1052 63.3391 65.3496 61.7049 65.4412 59.8549C65.5634 58.0048 65.6245 55.8002 65.6245 53.241Z" fill="white"/>
<path d="M82.023 37.4686C82.9263 38.4944 83.5285 39.5201 83.8296 40.5459C84.1307 41.5337 84.2812 42.5975 84.2812 43.7372V66.9313H76.3772V44.649C76.3772 42.4455 76.0761 40.052 75.4739 37.4686H82.023ZM94.613 46.0167C94.613 45.0669 94.4248 44.2881 94.0484 43.6802C93.672 43.0724 92.9945 42.7684 92.0159 42.7684C91.6395 42.7684 91.282 42.8254 90.9432 42.9394C90.6045 43.0154 90.1716 43.0724 89.6447 43.1104C89.193 43.1484 88.779 43.0534 88.4026 42.8254C88.0263 42.5975 87.6687 42.3125 87.33 41.9706C87.0288 41.5907 86.7277 41.1728 86.4266 40.7169C86.1632 40.261 85.8997 39.8051 85.6362 39.3492C87.5181 38.3614 89.1554 37.6775 90.548 37.2976C91.9406 36.9177 93.2956 36.7277 94.613 36.7277C95.5916 36.7277 96.5513 36.9177 97.4923 37.2976C98.4332 37.6775 99.2613 38.2474 99.9764 39.0072C100.729 39.7671 101.331 40.7169 101.783 41.8566C102.235 42.9964 102.461 44.3451 102.461 45.9028V66.9313H94.613V46.0167Z" fill="white"/>
<path d="M122.736 36.7277C123.752 36.7277 124.862 36.8417 126.067 37.0697C127.271 37.2596 128.438 37.5636 129.567 37.9815L127.648 43.2813C126.744 43.0534 125.86 42.8824 124.994 42.7684C124.128 42.6545 123.376 42.5975 122.736 42.5975C120.703 42.5975 119.066 43.4523 117.824 45.1619C116.582 46.8716 115.961 49.2081 115.961 52.1714C115.961 55.1728 116.582 57.5283 117.824 59.2379C119.066 60.9476 120.703 61.8024 122.736 61.8024C123.526 61.8024 124.373 61.7074 125.276 61.5174C126.18 61.2895 127.234 60.9286 128.438 60.4347L130.358 65.6775C128.89 66.3614 127.497 66.8553 126.18 67.1592C124.9 67.5012 123.752 67.6721 122.736 67.6721C120.779 67.6721 118.878 67.3872 117.034 66.8173C115.227 66.2094 113.627 65.2786 112.235 64.0249C110.842 62.7712 109.713 61.1755 108.847 59.2379C108.019 57.2623 107.605 54.9068 107.605 52.1714C107.605 49.588 108.019 47.3275 108.847 45.3899C109.713 43.4523 110.842 41.8566 112.235 40.6029C113.627 39.3112 115.227 38.3424 117.034 37.6965C118.878 37.0507 120.779 36.7277 122.736 36.7277Z" fill="white"/>
<path d="M139.091 37.4686C139.392 37.7345 139.712 38.2664 140.051 39.0642C140.427 39.8241 140.69 40.6979 140.841 41.6857L140.954 43.0534L141.518 41.6857C142.271 40.166 143.25 38.9882 144.454 38.1524C145.696 37.3166 146.92 36.8987 148.124 36.8987C149.215 36.8987 150.439 37.1266 151.794 37.5825L150.89 44.0222C150.138 43.7942 149.498 43.6423 148.971 43.5663C148.482 43.4903 148.011 43.4523 147.559 43.4523C146.581 43.4523 145.715 43.6992 144.962 44.1931C144.21 44.687 143.57 45.3709 143.043 46.2447C142.516 47.0805 142.102 48.1063 141.801 49.322C141.537 50.4998 141.406 51.7915 141.406 53.1972V66.9313H134.01V44.649C134.01 43.5853 133.934 42.4645 133.784 41.2868C133.671 40.071 133.445 38.7983 133.106 37.4686H139.091Z" fill="white"/>
<path d="M174.243 48.8661C174.355 47.9923 174.318 47.1565 174.13 46.3587C173.941 45.5608 173.622 44.858 173.17 44.2501C172.756 43.6423 172.21 43.1674 171.533 42.8254C170.893 42.4455 170.14 42.2555 169.274 42.2555C168.484 42.2555 167.694 42.4265 166.903 42.7684C166.15 43.1104 165.454 43.6612 164.814 44.4211C164.174 45.1429 163.647 46.0927 163.233 47.2705C162.857 48.4102 162.669 49.7969 162.669 51.4306C162.669 54.7359 163.403 57.3003 164.871 59.1239C166.339 60.9096 168.258 61.8024 170.629 61.8024C171.947 61.8024 173.226 61.6504 174.468 61.3465C175.748 61.0045 177.216 60.4537 178.872 59.6938L180.848 64.9937C178.816 65.9815 176.896 66.6653 175.089 67.0452C173.32 67.4632 171.551 67.6721 169.782 67.6721C167.185 67.6721 164.946 67.1972 163.064 66.2474C161.22 65.2976 159.677 64.0819 158.434 62.6002C157.23 61.0805 156.327 59.3709 155.725 57.4713C155.16 55.5717 154.878 53.6531 154.878 51.7155C154.878 49.36 155.254 47.2515 156.007 45.3899C156.797 43.5283 157.851 41.9706 159.168 40.7169C160.523 39.4252 162.104 38.4374 163.911 37.7535C165.718 37.0697 167.637 36.7277 169.67 36.7277C171.74 36.7277 173.64 37.1456 175.372 37.9815C177.103 38.8173 178.496 39.976 179.55 41.4577C180.603 42.9394 181.243 44.725 181.469 46.8146C181.733 48.8661 181.45 51.1077 180.622 53.5391H164.814C165.228 52.2094 165.812 51.1077 166.564 50.2338C167.355 49.322 168.239 48.8661 169.218 48.8661H174.243Z" fill="white"/>
<path d="M194.141 37.4686C195.044 38.4944 195.628 39.5201 195.891 40.5459C196.192 41.5337 196.343 42.5975 196.343 43.7372V66.9313H188.439V44.649C188.439 43.5853 188.364 42.4645 188.213 41.2868C188.1 40.071 187.893 38.7983 187.592 37.4686H194.141ZM206.449 46.0167C206.449 45.0669 206.28 44.2881 205.941 43.6802C205.602 43.0724 204.943 42.7684 203.965 42.7684C203.626 42.7684 203.287 42.8064 202.949 42.8824C202.61 42.9584 202.215 43.0154 201.763 43.0534C201.311 43.0914 200.878 43.0154 200.464 42.8254C200.088 42.5975 199.73 42.2935 199.392 41.9136C199.053 41.5337 198.733 41.1158 198.432 40.6599C198.131 40.166 197.849 39.6531 197.585 39.1212C199.618 38.2854 201.311 37.6775 202.666 37.2976C204.059 36.9177 205.414 36.7277 206.731 36.7277C207.71 36.7277 208.651 36.9177 209.554 37.2976C210.495 37.6775 211.304 38.2474 211.982 39.0072C212.697 39.7671 213.261 40.7169 213.675 41.8566C214.127 42.9964 214.353 44.3451 214.353 45.9028V66.9313H206.449V46.0167ZM224.459 46.0167C224.459 45.0669 224.252 44.2881 223.838 43.6802C223.424 43.0724 222.69 42.7684 221.636 42.7684C221.297 42.7684 220.921 42.8254 220.507 42.9394C220.13 43.0154 219.698 43.0724 219.208 43.1104C218.757 43.1484 218.324 43.0724 217.91 42.8824C217.496 42.6545 217.101 42.3505 216.724 41.9706C216.385 41.5907 216.065 41.1728 215.764 40.7169C215.463 40.223 215.181 39.7101 214.917 39.1782C216.988 38.3044 218.738 37.6775 220.168 37.2976C221.598 36.9177 222.972 36.7277 224.289 36.7277C225.268 36.7277 226.228 36.9177 227.169 37.2976C228.147 37.6775 229.013 38.2474 229.766 39.0072C230.519 39.7671 231.121 40.7169 231.572 41.8566C232.062 42.9964 232.306 44.3451 232.306 45.9028V66.9313H224.459V46.0167Z" fill="white"/>
<path d="M258.598 48.8661C258.711 47.9923 258.673 47.1565 258.485 46.3587C258.297 45.5608 257.977 44.858 257.525 44.2501C257.111 43.6423 256.565 43.1674 255.888 42.8254C255.248 42.4455 254.495 42.2555 253.63 42.2555C252.839 42.2555 252.049 42.4265 251.258 42.7684C250.506 43.1104 249.809 43.6612 249.169 44.4211C248.53 45.1429 248.003 46.0927 247.589 47.2705C247.212 48.4102 247.024 49.7969 247.024 51.4306C247.024 54.7359 247.758 57.3003 249.226 59.1239C250.694 60.9096 252.613 61.8024 254.985 61.8024C256.302 61.8024 257.582 61.6504 258.824 61.3465C260.103 61.0045 261.571 60.4537 263.227 59.6938L265.203 64.9937C263.171 65.9815 261.251 66.6653 259.445 67.0452C257.676 67.4632 255.907 67.6721 254.138 67.6721C251.541 67.6721 249.301 67.1972 247.419 66.2474C245.575 65.2976 244.032 64.0819 242.79 62.6002C241.585 61.0805 240.682 59.3709 240.08 57.4713C239.515 55.5717 239.233 53.6531 239.233 51.7155C239.233 49.36 239.609 47.2515 240.362 45.3899C241.153 43.5283 242.206 41.9706 243.524 40.7169C244.879 39.4252 246.46 38.4374 248.266 37.7535C250.073 37.0697 251.992 36.7277 254.025 36.7277C256.095 36.7277 257.996 37.1456 259.727 37.9815C261.458 38.8173 262.851 39.976 263.905 41.4577C264.959 42.9394 265.599 44.725 265.824 46.8146C266.088 48.8661 265.806 51.1077 264.978 53.5391H249.169C249.584 52.2094 250.167 51.1077 250.92 50.2338C251.71 49.322 252.595 48.8661 253.573 48.8661H258.598Z" fill="white"/>
<path d="M277.198 37.4686C278.101 38.4944 278.703 39.5201 279.005 40.5459C279.306 41.5337 279.456 42.5975 279.456 43.7372V66.9313H271.552V44.649C271.552 42.4455 271.251 40.052 270.649 37.4686H277.198ZM289.788 46.0167C289.788 45.0669 289.6 44.2881 289.223 43.6802C288.847 43.0724 288.169 42.7684 287.191 42.7684C286.815 42.7684 286.457 42.8254 286.118 42.9394C285.779 43.0154 285.347 43.0724 284.82 43.1104C284.368 43.1484 283.954 43.0534 283.578 42.8254C283.201 42.5975 282.844 42.3125 282.505 41.9706C282.204 41.5907 281.903 41.1728 281.602 40.7169C281.338 40.261 281.075 39.8051 280.811 39.3492C282.693 38.3614 284.33 37.6775 285.723 37.2976C287.116 36.9177 288.471 36.7277 289.788 36.7277C290.767 36.7277 291.726 36.9177 292.667 37.2976C293.608 37.6775 294.436 38.2474 295.151 39.0072C295.904 39.7671 296.506 40.7169 296.958 41.8566C297.41 42.9964 297.636 44.3451 297.636 45.9028V66.9313H289.788V46.0167Z" fill="white"/>
<path d="M307.071 43.1104H302.385V38.6083L307.071 37.4686V30.4591L314.523 28.0086V55.6477C314.523 57.5853 314.919 59.1049 315.709 60.2067C316.537 61.2705 317.61 61.8024 318.927 61.8024C319.454 61.8024 320.056 61.7454 320.734 61.6314C321.449 61.5174 322.296 61.2895 323.274 60.9476L324.912 66.1334C323.481 66.6273 322.22 67.0073 321.129 67.2732C320.075 67.5391 319.078 67.6721 318.137 67.6721C314.523 67.6721 311.776 66.6463 309.894 64.5948C308.012 62.5432 307.071 59.5609 307.071 55.6477V43.1104ZM322.089 43.1104C321.261 43.1104 320.527 42.9394 319.887 42.5975C319.285 42.2176 318.758 41.7617 318.306 41.2298C317.854 40.6979 317.478 40.109 317.177 39.4631C316.876 38.7793 316.631 38.1144 316.443 37.4686H324.629V43.1104H322.089Z" fill="white"/>
<path d="M330.844 66.9313V37.4686H338.748V66.9313H330.844ZM330.166 28.9204C330.166 27.5907 330.599 26.4699 331.465 25.5581C332.368 24.6083 333.479 24.1334 334.796 24.1334C336.113 24.1334 337.205 24.6083 338.071 25.5581C338.974 26.4699 339.425 27.5907 339.425 28.9204C339.425 30.2501 338.974 31.3709 338.071 32.2827C337.205 33.1565 336.113 33.5934 334.796 33.5934C333.479 33.5934 332.368 33.1565 331.465 32.2827C330.599 31.3709 330.166 30.2501 330.166 28.9204Z" fill="white"/>
<path d="M359.427 36.7277C360.443 36.7277 361.553 36.8417 362.758 37.0697C363.962 37.2596 365.129 37.5636 366.258 37.9815L364.339 43.2813C363.435 43.0534 362.551 42.8824 361.685 42.7684C360.819 42.6545 360.067 42.5975 359.427 42.5975C357.394 42.5975 355.757 43.4523 354.515 45.1619C353.273 46.8716 352.652 49.2081 352.652 52.1714C352.652 55.1728 353.273 57.5283 354.515 59.2379C355.757 60.9476 357.394 61.8024 359.427 61.8024C360.217 61.8024 361.064 61.7074 361.967 61.5174C362.871 61.2895 363.925 60.9286 365.129 60.4347L367.049 65.6775C365.581 66.3614 364.188 66.8553 362.871 67.1592C361.591 67.5012 360.443 67.6721 359.427 67.6721C357.47 67.6721 355.569 67.3872 353.725 66.8173C351.918 66.2094 350.318 65.2786 348.926 64.0249C347.533 62.7712 346.404 61.1755 345.538 59.2379C344.71 57.2623 344.296 54.9068 344.296 52.1714C344.296 49.588 344.71 47.3275 345.538 45.3899C346.404 43.4523 347.533 41.8566 348.926 40.6029C350.318 39.3112 351.918 38.3424 353.725 37.6965C355.569 37.0507 357.47 36.7277 359.427 36.7277Z" fill="white"/>
</g>
<defs>
<clipPath id="clip0">
<rect width="403" height="200" fill="white"/>
</clipPath>
</defs>
</svg>
