<svg width="403" height="403" viewBox="0 0 403 403" fill="none" xmlns="http://www.w3.org/2000/svg">
<rect width="403" height="403" fill="#EB5757"/>
<path d="M25.196 121C25.196 123.814 25.2464 126.237 25.3471 128.271C25.4814 130.305 25.7501 132.102 26.1531 133.661C26.5897 135.186 27.211 136.576 28.0169 137.831C28.8565 139.085 29.9983 140.356 31.4424 141.644L28.1177 145C26.1699 143.678 24.5915 142.271 23.3825 140.78C22.2071 139.322 21.2836 137.661 20.612 135.797C19.9739 133.898 19.5373 131.763 19.3022 129.39C19.1008 126.983 19 124.187 19 121C19 117.848 19.1008 115.068 19.3022 112.661C19.5373 110.254 19.9739 108.119 20.612 106.254C21.2836 104.39 22.2071 102.729 23.3825 101.271C24.5915 99.7799 26.1699 98.3731 28.1177 97.0511L31.4424 100.356C29.9983 101.678 28.8565 102.966 28.0169 104.221C27.1774 105.475 26.5393 106.882 26.1027 108.441C25.6997 110 25.4479 111.78 25.3471 113.78C25.2464 115.78 25.196 118.187 25.196 121Z" fill="white"/>
<path d="M34.8839 136.051V109.763H41.9363V136.051H34.8839ZM34.2794 102.136C34.2794 100.949 34.6656 99.9494 35.438 99.1358C36.244 98.2884 37.2347 97.8647 38.4101 97.8647C39.5855 97.8647 40.5594 98.2884 41.3318 99.1358C42.1378 99.9494 42.5408 100.949 42.5408 102.136C42.5408 103.322 42.1378 104.322 41.3318 105.136C40.5594 105.915 39.5855 106.305 38.4101 106.305C37.2347 106.305 36.244 105.915 35.438 105.136C34.6656 104.322 34.2794 103.322 34.2794 102.136Z" fill="white"/>
<path d="M51.6218 121C51.6218 118.187 51.5715 115.78 51.4707 113.78C51.37 111.78 51.1013 110 50.6647 108.441C50.2617 106.882 49.6405 105.475 48.8009 104.221C47.9613 102.966 46.8195 101.678 45.3755 100.356L48.7002 97.0511C50.6479 98.3731 52.2095 99.7799 53.3849 101.271C54.5939 102.729 55.5174 104.39 56.1555 106.254C56.8271 108.119 57.2637 110.254 57.4652 112.661C57.7003 115.068 57.8178 117.848 57.8178 121C57.8178 124.187 57.7003 126.983 57.4652 129.39C57.2637 131.763 56.8271 133.898 56.1555 135.797C55.5174 137.661 54.5939 139.322 53.3849 140.78C52.2095 142.271 50.6479 143.678 48.7002 145L45.3755 141.644C46.8195 140.356 47.9445 139.085 48.7505 137.831C49.5901 136.576 50.2114 135.186 50.6144 133.661C51.0509 132.102 51.3196 130.305 51.4203 128.271C51.5547 126.237 51.6218 123.814 51.6218 121Z" fill="white"/>
<path d="M69.6499 103.66C70.643 104.788 71.3051 105.916 71.6361 107.043C71.9671 108.129 72.1326 109.299 72.1326 110.552V136.051H63.4431V111.554C63.4431 109.132 63.1121 106.501 62.45 103.66H69.6499ZM83.491 113.058C83.491 112.014 83.2841 111.158 82.8704 110.489C82.4566 109.821 81.7118 109.487 80.6359 109.487C80.2221 109.487 79.829 109.55 79.4566 109.675C79.0842 109.758 78.6084 109.821 78.0291 109.863C77.5325 109.905 77.0774 109.8 76.6636 109.55C76.2498 109.299 75.8567 108.986 75.4843 108.61C75.1533 108.192 74.8222 107.733 74.4912 107.231C74.2015 106.73 73.9119 106.229 73.6222 105.728C75.6912 104.642 77.4911 103.89 79.0222 103.472C80.5532 103.055 82.0428 102.846 83.491 102.846C84.5669 102.846 85.622 103.055 86.6565 103.472C87.691 103.89 88.6013 104.517 89.3875 105.352C90.2151 106.187 90.8771 107.231 91.3737 108.484C91.8702 109.737 92.1185 111.22 92.1185 112.933V136.051H83.491V113.058Z" fill="white"/>
<path d="M114.409 102.846C115.526 102.846 116.746 102.971 118.071 103.222C119.395 103.431 120.677 103.765 121.919 104.224L119.808 110.051C118.815 109.8 117.843 109.612 116.891 109.487C115.94 109.362 115.112 109.299 114.409 109.299C112.174 109.299 110.374 110.239 109.009 112.118C107.643 113.998 106.96 116.566 106.96 119.824C106.96 123.124 107.643 125.713 109.009 127.593C110.374 129.473 112.174 130.412 114.409 130.412C115.278 130.412 116.209 130.308 117.202 130.099C118.195 129.848 119.353 129.452 120.677 128.909L122.788 134.673C121.174 135.424 119.643 135.967 118.195 136.301C116.788 136.677 115.526 136.865 114.409 136.865C112.257 136.865 110.167 136.552 108.14 135.926C106.154 135.257 104.395 134.234 102.864 132.856C101.333 131.477 100.092 129.723 99.1399 127.593C98.2296 125.421 97.7744 122.832 97.7744 119.824C97.7744 116.984 98.2296 114.499 99.1399 112.369C100.092 110.239 101.333 108.484 102.864 107.106C104.395 105.686 106.154 104.621 108.14 103.911C110.167 103.201 112.257 102.846 114.409 102.846Z" fill="white"/>
<path d="M132.389 103.66C132.72 103.953 133.072 104.537 133.444 105.415C133.858 106.25 134.147 107.211 134.313 108.297L134.437 109.8L135.058 108.297C135.885 106.626 136.961 105.331 138.285 104.412C139.651 103.493 140.996 103.034 142.32 103.034C143.52 103.034 144.865 103.284 146.354 103.786L145.361 110.865C144.533 110.615 143.83 110.448 143.251 110.364C142.713 110.28 142.196 110.239 141.699 110.239C140.623 110.239 139.671 110.51 138.844 111.053C138.016 111.596 137.313 112.348 136.734 113.309C136.154 114.227 135.699 115.355 135.368 116.692C135.078 117.987 134.934 119.407 134.934 120.952V136.051H126.803V111.554C126.803 110.385 126.72 109.153 126.554 107.858C126.43 106.521 126.182 105.122 125.81 103.66H132.389Z" fill="white"/>
<path d="M171.034 116.191C171.158 115.23 171.117 114.311 170.91 113.434C170.703 112.557 170.351 111.784 169.855 111.116C169.399 110.448 168.799 109.925 168.055 109.55C167.351 109.132 166.524 108.923 165.572 108.923C164.703 108.923 163.834 109.111 162.965 109.487C162.137 109.863 161.372 110.468 160.669 111.304C159.965 112.097 159.386 113.142 158.931 114.436C158.517 115.689 158.31 117.214 158.31 119.01C158.31 122.644 159.117 125.463 160.731 127.468C162.344 129.431 164.455 130.412 167.062 130.412C168.51 130.412 169.917 130.245 171.282 129.911C172.689 129.535 174.303 128.93 176.123 128.094L178.296 133.921C176.061 135.007 173.951 135.759 171.965 136.176C170.02 136.636 168.075 136.865 166.131 136.865C163.275 136.865 160.813 136.343 158.744 135.299C156.717 134.255 155.02 132.918 153.655 131.289C152.331 129.619 151.338 127.739 150.676 125.651C150.055 123.562 149.745 121.453 149.745 119.323C149.745 116.734 150.158 114.415 150.986 112.369C151.855 110.322 153.013 108.61 154.462 107.231C155.951 105.811 157.689 104.725 159.675 103.974C161.662 103.222 163.772 102.846 166.006 102.846C168.282 102.846 170.372 103.305 172.275 104.224C174.179 105.143 175.71 106.417 176.868 108.046C178.027 109.675 178.73 111.638 178.979 113.935C179.268 116.191 178.958 118.655 178.048 121.328H160.669C161.124 119.866 161.765 118.655 162.593 117.694C163.462 116.692 164.434 116.191 165.51 116.191H171.034Z" fill="white"/>
<path d="M192.91 103.66C193.903 104.788 194.544 105.916 194.834 107.043C195.165 108.129 195.331 109.299 195.331 110.552V136.051H186.641V111.554C186.641 110.385 186.558 109.153 186.393 107.858C186.269 106.521 186.041 105.122 185.71 103.66H192.91ZM206.441 113.058C206.441 112.014 206.254 111.158 205.882 110.489C205.51 109.821 204.786 109.487 203.71 109.487C203.337 109.487 202.965 109.529 202.592 109.612C202.22 109.696 201.786 109.758 201.289 109.8C200.793 109.842 200.317 109.758 199.861 109.55C199.448 109.299 199.055 108.965 198.682 108.547C198.31 108.129 197.958 107.67 197.627 107.169C197.296 106.626 196.986 106.062 196.696 105.477C198.93 104.558 200.792 103.89 202.282 103.472C203.813 103.055 205.303 102.846 206.751 102.846C207.827 102.846 208.861 103.055 209.854 103.472C210.889 103.89 211.779 104.517 212.523 105.352C213.31 106.187 213.93 107.231 214.385 108.484C214.882 109.737 215.13 111.22 215.13 112.933V136.051H206.441V113.058ZM226.24 113.058C226.24 112.014 226.013 111.158 225.558 110.489C225.102 109.821 224.296 109.487 223.137 109.487C222.765 109.487 222.351 109.55 221.896 109.675C221.482 109.758 221.006 109.821 220.468 109.863C219.971 109.905 219.496 109.821 219.04 109.612C218.585 109.362 218.151 109.027 217.737 108.61C217.365 108.192 217.013 107.733 216.682 107.231C216.351 106.688 216.04 106.125 215.751 105.54C218.027 104.579 219.951 103.89 221.523 103.472C223.096 103.055 224.606 102.846 226.054 102.846C227.13 102.846 228.185 103.055 229.22 103.472C230.295 103.89 231.247 104.517 232.075 105.352C232.902 106.187 233.564 107.231 234.061 108.484C234.599 109.737 234.868 111.22 234.868 112.933V136.051H226.24V113.058Z" fill="white"/>
<path d="M263.772 116.191C263.896 115.23 263.855 114.311 263.648 113.434C263.441 112.557 263.089 111.784 262.593 111.116C262.138 110.448 261.538 109.925 260.793 109.55C260.089 109.132 259.262 108.923 258.31 108.923C257.441 108.923 256.572 109.111 255.703 109.487C254.876 109.863 254.11 110.468 253.407 111.304C252.703 112.097 252.124 113.142 251.669 114.436C251.255 115.689 251.048 117.214 251.048 119.01C251.048 122.644 251.855 125.463 253.469 127.468C255.082 129.431 257.193 130.412 259.8 130.412C261.248 130.412 262.655 130.245 264.02 129.911C265.427 129.535 267.041 128.93 268.862 128.094L271.034 133.921C268.799 135.007 266.689 135.759 264.703 136.176C262.758 136.636 260.813 136.865 258.869 136.865C256.014 136.865 253.551 136.343 251.483 135.299C249.455 134.255 247.758 132.918 246.393 131.289C245.069 129.619 244.076 127.739 243.414 125.651C242.793 123.562 242.483 121.453 242.483 119.323C242.483 116.734 242.896 114.415 243.724 112.369C244.593 110.322 245.752 108.61 247.2 107.231C248.69 105.811 250.427 104.725 252.414 103.974C254.4 103.222 256.51 102.846 258.744 102.846C261.02 102.846 263.11 103.305 265.013 104.224C266.917 105.143 268.448 106.417 269.606 108.046C270.765 109.675 271.468 111.638 271.717 113.935C272.006 116.191 271.696 118.655 270.786 121.328H253.407C253.862 119.866 254.503 118.655 255.331 117.694C256.2 116.692 257.172 116.191 258.248 116.191H263.772Z" fill="white"/>
<path d="M284.22 103.66C285.214 104.788 285.876 105.916 286.207 107.043C286.538 108.129 286.703 109.299 286.703 110.552V136.051H278.014V111.554C278.014 109.132 277.683 106.501 277.021 103.66H284.22ZM298.062 113.058C298.062 112.014 297.855 111.158 297.441 110.489C297.027 109.821 296.282 109.487 295.206 109.487C294.793 109.487 294.4 109.55 294.027 109.675C293.655 109.758 293.179 109.821 292.6 109.863C292.103 109.905 291.648 109.8 291.234 109.55C290.82 109.299 290.427 108.986 290.055 108.61C289.724 108.192 289.393 107.733 289.062 107.231C288.772 106.73 288.482 106.229 288.193 105.728C290.262 104.642 292.062 103.89 293.593 103.472C295.124 103.055 296.613 102.846 298.062 102.846C299.137 102.846 300.193 103.055 301.227 103.472C302.261 103.89 303.172 104.517 303.958 105.352C304.786 106.187 305.448 107.231 305.944 108.484C306.441 109.737 306.689 111.22 306.689 112.933V136.051H298.062V113.058Z" fill="white"/>
<path d="M317.062 109.863H311.91V104.913L317.062 103.66V95.9543L325.255 93.2603V123.646C325.255 125.776 325.69 127.447 326.559 128.658C327.469 129.828 328.648 130.412 330.096 130.412C330.676 130.412 331.338 130.35 332.083 130.224C332.869 130.099 333.8 129.848 334.876 129.473L336.676 135.174C335.103 135.717 333.717 136.134 332.517 136.427C331.358 136.719 330.262 136.865 329.227 136.865C325.255 136.865 322.234 135.738 320.166 133.482C318.097 131.227 317.062 127.948 317.062 123.646V109.863ZM333.572 109.863C332.662 109.863 331.855 109.675 331.152 109.299C330.489 108.881 329.91 108.38 329.414 107.795C328.917 107.211 328.503 106.563 328.172 105.853C327.841 105.101 327.572 104.37 327.365 103.66H336.365V109.863H333.572Z" fill="white"/>
<path d="M343.198 136.051V103.66H351.887V136.051H343.198ZM342.453 94.2627C342.453 92.8008 342.929 91.5687 343.88 90.5663C344.873 89.5221 346.094 89 347.542 89C348.991 89 350.191 89.5221 351.142 90.5663C352.135 91.5687 352.632 92.8008 352.632 94.2627C352.632 95.7245 352.135 96.9567 351.142 97.9591C350.191 98.9197 348.991 99.4001 347.542 99.4001C346.094 99.4001 344.873 98.9197 343.88 97.9591C342.929 96.9567 342.453 95.7245 342.453 94.2627Z" fill="white"/>
<path d="M374.621 102.846C375.738 102.846 376.959 102.971 378.283 103.222C379.607 103.431 380.89 103.765 382.131 104.224L380.021 110.051C379.028 109.8 378.055 109.612 377.104 109.487C376.152 109.362 375.324 109.299 374.621 109.299C372.386 109.299 370.586 110.239 369.221 112.118C367.855 113.998 367.173 116.566 367.173 119.824C367.173 123.124 367.855 125.713 369.221 127.593C370.586 129.473 372.386 130.412 374.621 130.412C375.49 130.412 376.421 130.308 377.414 130.099C378.407 129.848 379.566 129.452 380.89 128.909L383 134.673C381.386 135.424 379.855 135.967 378.407 136.301C377 136.677 375.738 136.865 374.621 136.865C372.469 136.865 370.38 136.552 368.352 135.926C366.366 135.257 364.607 134.234 363.076 132.856C361.545 131.477 360.304 129.723 359.352 127.593C358.442 125.421 357.987 122.832 357.987 119.824C357.987 116.984 358.442 114.499 359.352 112.369C360.304 110.239 361.545 108.484 363.076 107.106C364.607 105.686 366.366 104.621 368.352 103.911C370.38 103.201 372.469 102.846 374.621 102.846Z" fill="white"/>
<path d="M72.07 259.464C64.506 259.464 57.796 258.285 51.94 255.926C46.084 253.567 41.1227 250.314 37.056 246.166C33.0707 242.018 30.0207 237.179 27.906 231.648C25.8727 226.036 24.856 220.017 24.856 213.592C24.856 207.248 25.9133 201.311 28.028 195.78C30.224 190.168 33.3553 185.288 37.422 181.14C41.4887 176.992 46.45 173.739 52.306 171.38C58.162 168.94 64.75 167.72 72.07 167.72C75.486 167.72 78.9427 168.045 82.44 168.696C85.9373 169.347 89.638 170.404 93.542 171.868L89.15 183.092C85.5713 182.035 82.5213 181.303 80 180.896C77.4787 180.489 74.8353 180.286 72.07 180.286C67.19 180.286 62.9607 181.262 59.382 183.214C55.8033 185.085 52.8347 187.565 50.476 190.656C48.1173 193.747 46.328 197.285 45.108 201.27C43.9693 205.255 43.4 209.363 43.4 213.592C43.4 217.821 43.9693 221.929 45.108 225.914C46.328 229.899 48.1173 233.478 50.476 236.65C52.8347 239.741 55.8033 242.221 59.382 244.092C62.9607 245.963 67.19 246.898 72.07 246.898C77.5193 246.898 83.172 245.515 89.028 242.75L93.542 253.852C89.882 255.723 86.222 257.105 82.562 258C78.9833 258.976 75.486 259.464 72.07 259.464ZM102.517 169.306H155.709V181.872H119.963V245.434H157.661V258H102.517V169.306ZM124.599 217.618C125.005 216.317 125.534 214.934 126.185 213.47C126.835 212.006 127.649 210.664 128.625 209.444C129.601 208.224 130.739 207.248 132.041 206.516C133.423 205.703 135.009 205.296 136.799 205.296H151.561V217.618H124.599ZM236.947 194.804C236.947 199.684 235.849 203.913 233.653 207.492C231.457 211.071 228.529 213.958 224.869 216.154L221.453 217.496C221.779 217.659 222.226 217.862 222.795 218.106C223.365 218.35 223.812 218.594 224.137 218.838C226.577 220.953 228.489 223.474 229.871 226.402C231.254 229.249 232.433 232.38 233.409 235.796C234.467 239.131 235.483 242.709 236.459 246.532C237.517 250.273 238.94 254.096 240.729 258H222.795C221.331 254.909 220.152 251.615 219.257 248.118C218.444 244.539 217.549 241.083 216.573 237.748C215.597 234.413 214.459 231.323 213.157 228.476C211.856 225.629 210.067 223.311 207.789 221.522C206.081 221.685 204.251 221.725 202.299 221.644C200.429 221.481 198.436 221.075 196.321 220.424C196.809 219.285 197.338 218.106 197.907 216.886C198.558 215.585 199.29 214.405 200.103 213.348C200.998 212.209 201.974 211.274 203.031 210.542C204.17 209.81 205.431 209.363 206.813 209.2C208.521 209.037 210.107 208.59 211.571 207.858C213.035 207.045 214.296 206.028 215.353 204.808C216.492 203.507 217.387 202.002 218.037 200.294C218.688 198.586 219.013 196.756 219.013 194.804C219.013 192.689 218.566 190.737 217.671 188.948C216.777 187.159 215.557 185.613 214.011 184.312C212.547 183.011 210.758 181.994 208.643 181.262C206.61 180.53 204.414 180.164 202.055 180.164C200.917 180.164 199.941 180.205 199.127 180.286C198.395 180.286 197.663 180.327 196.931 180.408C196.199 180.408 195.427 180.489 194.613 180.652C193.8 180.733 192.865 180.815 191.807 180.896V258H174.239V170.404C177.493 169.835 180.38 169.387 182.901 169.062C185.423 168.655 187.7 168.371 189.733 168.208C191.848 167.964 193.881 167.801 195.833 167.72C197.785 167.639 199.859 167.598 202.055 167.598C206.854 167.598 211.368 168.208 215.597 169.428C219.827 170.648 223.527 172.437 226.699 174.796C229.871 177.073 232.352 179.92 234.141 183.336C236.012 186.671 236.947 190.493 236.947 194.804ZM248.122 181.872V169.306H311.806V181.872H288.626V258H271.302V181.872H248.122ZM347.94 179.92C344.28 179.92 341.352 180.815 339.156 182.604C336.96 184.393 335.862 186.671 335.862 189.436C335.862 192.201 336.878 194.601 338.912 196.634C341.026 198.667 343.588 200.579 346.598 202.368C349.688 204.157 353.023 205.987 356.602 207.858C360.262 209.729 363.596 211.884 366.606 214.324C369.696 216.764 372.258 219.651 374.292 222.986C376.406 226.321 377.464 230.347 377.464 235.064C377.464 238.968 376.691 242.465 375.146 245.556C373.682 248.565 371.567 251.127 368.802 253.242C366.118 255.275 362.864 256.861 359.042 258C355.219 259.057 350.99 259.586 346.354 259.586C342.856 259.586 338.79 259.098 334.154 258.122C329.599 257.227 324.516 255.479 318.904 252.876L323.54 241.53C327.932 243.645 332.039 245.109 335.862 245.922C339.766 246.654 343.263 247.02 346.354 247.02C348.55 247.02 350.542 246.735 352.332 246.166C354.202 245.515 355.788 244.661 357.09 243.604C358.472 242.547 359.53 241.327 360.262 239.944C360.994 238.561 361.36 237.057 361.36 235.43C361.36 232.502 360.343 229.981 358.31 227.866C356.276 225.751 353.714 223.799 350.624 222.01C347.533 220.139 344.198 218.309 340.62 216.52C337.122 214.731 333.828 212.697 330.738 210.42C327.647 208.061 325.085 205.337 323.052 202.246C321.018 199.074 320.002 195.292 320.002 190.9C320.002 186.915 320.693 183.458 322.076 180.53C323.54 177.602 325.492 175.203 327.932 173.332C330.372 171.461 333.218 170.079 336.472 169.184C339.725 168.208 343.182 167.72 346.842 167.72C348.712 167.72 350.502 167.801 352.21 167.964C353.999 168.045 355.829 168.249 357.7 168.574C359.652 168.818 361.644 169.225 363.678 169.794C365.792 170.282 368.151 170.933 370.754 171.746L366.24 182.848C362.58 181.791 359.286 181.059 356.358 180.652C353.43 180.164 350.624 179.92 347.94 179.92Z" fill="white"/>
</svg>
